<?xml version="1.0" encoding="UTF-8"?> <svg xmlns="http://www.w3.org/2000/svg" width="74" height="43" fill="none" viewBox="0 0 74 43"><g clip-path="url(#a)"><path fill="#222" d="M61.936 3.577c-.66.077-1.227.366-1.76.723-.51.337-.985.723-1.432 1.133a42.07 42.07 0 0 0-1.489 1.446 88.314 88.314 0 0 0-1.605 1.692c-.777.834-1.558 1.658-2.353 2.473a51.736 51.736 0 0 1-2.566 2.478c-.573.51-1.17.998-1.77 1.485a64.914 64.914 0 0 1-2.053 1.605c-.984.733-1.984 1.45-3.075 2.025-.771.404-1.557.785-2.348 1.152-.62.289-1.28.472-1.96.583a6.45 6.45 0 0 1-1.581.053 6.204 6.204 0 0 1-2.086-.579 9.07 9.07 0 0 1-2.076-1.35c-.039-.033-.078-.1-.136-.057-.034.024 0 .087.01.13.048.342.092.685.029 1.037a4.244 4.244 0 0 1-.243.882c-.174.42-.422.79-.718 1.133-.208.24-.431.462-.66.684-.29.28-.615.53-.93.786-.297.24-.602.472-.903.708-.325.256-.65.511-.97.777-.243.197-.476.4-.713.607-.704.622-1.412 1.239-2.105 1.866-.471.424-.922.862-1.378 1.296-.034.03-.053.102-.112.068-.038-.02-.014-.077-.01-.12 0-.054.01-.107.01-.16v-3.268c0-.111.03-.188.107-.27.563-.583 1.174-1.114 1.785-1.644.35-.304.694-.617 1.038-.926.568-.515 1.12-1.05 1.65-1.605.417-.434.814-.887 1.12-1.403.155-.26.32-.525.417-.82.194-.607.073-1.146-.315-1.643-.335-.429-.747-.766-1.179-1.094-1.3-.984-2.26-2.223-2.813-3.76a9.315 9.315 0 0 1-.456-1.914 13.01 13.01 0 0 1-.078-2.497c.02-.367.02-.738.049-1.104.029-.352.092-.7.14-1.065.107.077.16.188.233.284.17.226.388.41.636.52.247.111.533.126.81.097.34-.034.67-.101.984-.241.451-.198.68-.579.772-1.037.077-.38.077-.761-.15-1.156h32.243l-.01-.01Zm-6.112 1.962s.03.014.044.024H29.533c-.068-.005-.117.034-.107.092.029.197-.058.376-.073.564a30.991 30.991 0 0 0-.112 1.639c-.019.554-.024 1.113.034 1.663.049.491.136.983.325 1.456.122.303.233.607.393.891.325.574.752 1.075 1.17 1.582.504.612.999 1.234 1.59 1.774.335.303.714.554 1.082.819.354.25.708.501 1.077.728.52.313 1.048.602 1.616.834.64.265 1.295.443 1.983.492.883.062 1.713-.14 2.528-.463.29-.116.558-.28.844-.4.431-.183.834-.42 1.246-.632.418-.217.81-.492 1.233-.699.523-.26 1.004-.598 1.484-.92.446-.3.888-.617 1.305-.96.432-.352.849-.723 1.246-1.108.282-.275.52-.584.806-.859 1.183-1.132 2.352-2.28 3.526-3.422.723-.7 1.456-1.389 2.169-2.097.32-.318.616-.665.921-.998h.005Z"></path><path fill="#222" d="M62.829.024c-.413.024-.83.043-1.242.072-.437.029-.873.039-1.305.072-.33.024-.665.03-.995.063-.533.053-1.072.043-1.605.116-.238.033-.485.01-.723.038-.47.058-.946 0-1.412.097-.092.019-.194-.005-.29 0-.486.019-.966.038-1.451.072-.485.034-.97.087-1.46.101-.529.015-1.058.087-1.591.097-.369.01-.738.043-1.106.062-.582.034-1.16.063-1.742.102-.45.029-.902.053-1.353.086-.427.034-.859.044-1.286.068-.698.043-1.397.087-2.09.135-.36.024-.718.048-1.077.062-.514.02-1.029.073-1.543.097-.558.024-1.115.087-1.673.106-.34.01-.68.029-1.014.063-.607.057-1.213.043-1.82.12-.256.034-.518.02-.775.034-.626.034-1.247.096-1.868.11-.218.006-.451.04-.67.04-.213 0-.412.052-.62.048-.476-.015-.941.067-1.417.072-.34 0-.679.034-1.014.062-.45.04-.897.034-1.348.082a7.707 7.707 0 0 0-1.742.386c-1.45.497-2.498 1.451-3.206 2.786a7.926 7.926 0 0 0-.674 1.823 9.95 9.95 0 0 0-.228 1.359c-.073.709-.034 1.417-.015 2.126.015.516.039 1.036.03 1.552-.01.362.009.723.057 1.08.025.193.025.38.02.569-.005.303.102.472.402.573.301.102.612.179.898.333.752.4 1.218 1.012 1.407 1.837.063.274.106.55.102.834 0 .106-.03.13-.136.13H4.06c-.64 0-1.285-.044-1.906-.183a2.595 2.595 0 0 1-1.678-1.2 2.921 2.921 0 0 1-.437-1.244c-.02-.15-.03-.3-.039-.449-.01-.13.01-.183.165-.183.597.015 1.193.01 1.79.01h18.196c.14 0 .189-.024.189-.179-.005-2.072-.01-4.14 0-6.213 0-.27.068-.54.13-.8.108-.478.224-.955.394-1.413.189-.511.398-1.012.674-1.49a9.71 9.71 0 0 1 .67-1.036c.145-.183.31-.352.465-.53.238-.28.524-.511.8-.743.31-.26.66-.482 1.02-.68a9 9 0 0 1 2.512-.925c.49-.101.99-.159 1.49-.212.276-.029.547-.024.824-.024C40.389 0 51.463 0 62.542 0h.287v.024ZM23.512 32.37v7.217c0 .28.02.56.102.834.13.453.456.684.878.81.305.091.62.101.94.096.84-.01 1.684 0 2.523-.005.122 0 .156.03.15.15-.009.376-.009.757 0 1.133 0 .135-.024.183-.174.178-1.324-.005-2.648-.01-3.973 0a5.033 5.033 0 0 1-2.013-.395c-.218-.092-.417-.241-.611-.39-.281-.213-.48-.488-.665-.782-.155-.25-.18-.54-.281-.805-.087-.236-.024-.472-.082-.703-.025-.092.019-.198.019-.3v-5.374c0-.164-.02-.333 0-.502.02-.183 0-.366 0-.55v-4.367c0-.183-.01-.366 0-.55.015-.163-.03-.211-.204-.211-2.188.004-4.375 0-6.563.01-.68 0-1.348-.049-2.023-.121-.538-.058-1-.25-1.406-.588a2.14 2.14 0 0 1-.534-.709 6.449 6.449 0 0 1-.582-1.73c-.02-.102.02-.111.097-.107H23.313c.165 0 .204.039.204.203-.005 1.62 0 3.234 0 4.854v2.7h-.01l.005.005ZM50.866 33.908c0-.058.014-.115.014-.173v-3.818c0-.12.024-.164.16-.164.975.005 1.955.005 2.93 0 .122 0 .15.034.15.154v12.736c0 .12-.028.154-.15.154-.975-.004-1.955-.004-2.93 0-.13 0-.16-.033-.16-.158 0-2.208 0-4.411.005-6.62 0-.158-.043-.192-.194-.187-.703.01-1.412.01-2.115 0-.14 0-.19.024-.19.178.006 2.203 0 4.401.006 6.604 0 .145-.03.188-.18.188-.965-.01-1.93-.005-2.9 0-.117 0-.156-.024-.156-.15v-12.75c0-.115.034-.14.146-.14h2.95c.115 0 .14.03.14.145 0 1.316 0 2.632-.005 3.948 0 .135.029.169.165.164.698-.01 1.402 0 2.1 0 .054 0 .107-.005.16-.01.088.015.093-.024.054-.086v-.015ZM.17 36.266v-6.344c0-.145.034-.174.175-.174 1.411.005 2.823.005 4.234 0 .616 0 1.228 0 1.839.092.533.077 1.052.207 1.513.51.573.372.878.917 1.043 1.558.107.42.122.843.131 1.268.015.636-.043 1.258-.315 1.846-.281.607-.742 1.036-1.349 1.32-.548.256-1.13.372-1.727.425-.693.063-1.382.01-2.076.024-.233.005-.233 0-.233.241V42.6c0 .145-.034.188-.184.183-.96-.01-1.92-.005-2.881 0-.131 0-.17-.029-.17-.164.005-2.12 0-4.237 0-6.358v.005Zm3.23-2.994v1.923c0 .063-.033.145.093.145.402 0 .81.02 1.208-.068.494-.105.849-.38 1.028-.862.097-.256.116-.521.146-.786.038-.367-.01-.733-.064-1.1-.087-.611-.475-1.079-1.076-1.233-.393-.102-.796-.063-1.194-.077-.116 0-.14.038-.14.144.004.636 0 1.273 0 1.91v.004ZM14.979 19.48h10.08c.325 0 .34 0 .325.323-.053 1.249-.796 2.41-2.202 2.724a4.284 4.284 0 0 1-.927.091H10.041c-.888 0-1.78.03-2.668-.01-.951-.038-1.737-.428-2.285-1.233-.272-.396-.417-.83-.49-1.302-.024-.164-.015-.328-.034-.492-.01-.096.03-.125.116-.11H14.974l.005.01ZM42.067 33.306h-1.533c-.082 0-.135 0-.145-.111-.005-.068-.015-.14-.015-.207 0-.338-.034-.67-.102-.998-.063-.3-.227-.439-.543-.468-.102-.01-.189-.082-.305-.063-.345.058-.52.294-.64.584-.17.4-.229.824-.267 1.253-.03.328-.073.66-.064.988.01.26-.034.511-.019.776.015.217-.015.449-.015.67a42.88 42.88 0 0 0 0 1.765c.02.535.049 1.07.117 1.605.063.506.126 1.008.344 1.47.107.227.262.43.505.516.325.12.66.12.98-.033a.383.383 0 0 0 .198-.227c.083-.227.146-.463.18-.704.01-.053.01-.058.068-.058.883.005 1.77.005 2.653.005.03 0 .063 0 .093-.014.082-.024.096 0 .077.082-.184.752-.475 1.44-1.053 1.99a3.26 3.26 0 0 1-.635.468c-.213.116-.46.188-.708.246-.514.12-1.038.159-1.567.15-.335 0-.674.004-1-.059a4.801 4.801 0 0 1-1.163-.366c-.728-.342-1.223-.906-1.597-1.59-.33-.608-.523-1.264-.64-1.943a15.824 15.824 0 0 1-.194-1.581c-.048-.738-.024-1.47-.024-2.208 0-.314.039-.627.068-.936.039-.482.145-.95.267-1.417.174-.675.436-1.306.853-1.875.277-.38.64-.66 1.048-.877.379-.203.781-.319 1.208-.41.485-.101.97-.13 1.455-.111.738.034 1.475.11 2.14.482.718.4 1.203.974 1.435 1.77.127.423.19.852.194 1.291 0 .13-.038.145-.155.145-.504-.005-1.009 0-1.513 0h.014ZM61.906 42.788c-.742 0-1.49.029-2.227-.034a5.296 5.296 0 0 1-1.178-.246c-.495-.159-.912-.438-1.286-.776-.29-.265-.441-.631-.577-.998-.107-.284-.131-.583-.175-.877-.024-.169-.01-.328-.01-.492v-6.214c0-.496.034-.983.15-1.46.146-.579.413-1.08.947-1.389.359-.207.766-.313 1.179-.385.65-.116 1.304-.154 1.964-.154h3.032c.116 0 .16.019.155.149-.01.395-.01.786 0 1.181 0 .11-.029.145-.14.145-.777-.005-1.553 0-2.329 0-.325 0-.64.043-.946.15-.456.158-.645.53-.723.963-.092.54-.019 1.085-.038 1.625 0 .063.005.082.087.082h3.633c.107 0 .107.048.107.125v1.49c0 .115-.03.144-.146.144-1.164 0-2.323 0-3.487-.005-.156 0-.209.025-.204.198.01 1.186 0 2.372.01 3.563.005.424.13.829.388 1.176.213.284.528.42.873.506.32.082.645.091.97.091h2.183c.136 0 .16.044.155.164-.005.39-.005.777 0 1.167 0 .106-.029.135-.136.135-.742-.005-1.489 0-2.231 0v-.024Z"></path><path fill="#222" d="M16.556 42.793h-2.004c-.18 0-.359-.039-.538-.063-.039 0-.078-.02-.112-.014-.315.043-.577-.13-.868-.198-.34-.077-.626-.275-.936-.42-.097-.043-.15-.134-.223-.197-.48-.395-.709-.93-.888-1.5a1.672 1.672 0 0 1-.058-.51c-.005-2.343 0-4.681-.005-7.024 0-.602.102-1.181.344-1.73.267-.608.771-.926 1.388-1.095a7.012 7.012 0 0 1 1.382-.231c1.392-.102 2.785-.03 4.177-.058.106 0 .126.038.126.13 0 .4-.005.8 0 1.196 0 .11-.03.144-.146.144-.727-.005-1.455 0-2.183 0-.34 0-.669.024-.999.12-.456.13-.694.459-.795.893-.131.573-.04 1.157-.063 1.735-.005.11.072.087.13.087h3.551c.131 0 .16.038.155.159a73.6 73.6 0 0 0 0 1.456c0 .115-.033.14-.145.14-1.174 0-2.348 0-3.517-.005-.145 0-.18.033-.18.178.006 1.094 0 2.189 0 3.283 0 .443.064.872.272 1.273.209.404.573.592.99.698.344.087.694.092 1.048.092h2.134c.112 0 .146.029.146.14-.01.39-.01.776 0 1.166 0 .135-.049.155-.165.155-.675-.005-1.349 0-2.018 0v.005-.005ZM67.742 36.998v-5.616c0-.135-.034-.168-.17-.164-.902.005-1.804 0-2.701.005-.141 0-.17-.038-.165-.168.01-.391.01-.777 0-1.167 0-.116.034-.14.145-.14h9.008c.102 0 .14.02.136.13-.005.405-.01.81 0 1.215 0 .116-.044.13-.14.125h-2.722c-.136 0-.17.034-.17.17 0 3.73 0 7.466.01 11.197 0 .174-.049.208-.213.208-.956-.01-1.912-.005-2.867 0-.131 0-.156-.039-.156-.16v-5.63l.005-.005ZM29.746 36.251v-6.324c0-.14.03-.179.175-.179.965.01 1.93.005 2.9 0 .122 0 .166.02.166.154v12.732c0 .115-.02.154-.146.154-.975-.005-1.955-.005-2.93 0-.136 0-.155-.043-.155-.164v-6.373h-.01Z"></path><path fill="#F27C21" d="M50.865 33.908c.04.063.034.102-.053.087-.02-.048 0-.082.053-.087ZM55.828 5.539c-.306.333-.597.68-.922.998-.718.708-1.445 1.398-2.168 2.097-1.174 1.142-2.343 2.29-3.526 3.422-.287.275-.524.584-.806.859-.402.385-.815.756-1.246 1.108-.422.343-.86.66-1.305.96-.48.322-.96.66-1.485.92-.422.207-.81.482-1.232.7-.412.211-.815.448-1.246.63-.287.121-.553.285-.845.4-.81.324-1.644.526-2.527.464-.689-.049-1.344-.232-1.984-.492a11.873 11.873 0 0 1-1.615-.834 17.54 17.54 0 0 1-1.077-.728c-.369-.265-.747-.51-1.082-.82-.587-.54-1.086-1.156-1.59-1.773-.418-.507-.845-1.008-1.17-1.582-.16-.284-.272-.588-.393-.891-.19-.473-.276-.965-.325-1.456a12.67 12.67 0 0 1-.034-1.663c.02-.55.063-1.095.112-1.64.014-.187.102-.366.073-.563-.01-.053.033-.097.106-.092H55.877c-.015-.01-.03-.014-.044-.024h-.005Z"></path></g><defs><clipPath id="a"><path fill="#fff" d="M0 0h74v43H0z"></path></clipPath></defs></svg> 